<svg width="40" height="40" viewBox="0 0 40 40" fill="none" xmlns="http://www.w3.org/2000/svg">
<g id="Black White Orange Modern Concept Football Club Logo (1) 1" clip-path="url(#clip0_71_450)">
<g id="Clip path group">
<mask id="mask0_71_450" style="mask-type:luminance" maskUnits="userSpaceOnUse" x="14" y="14" width="12" height="12">
<g id="84a2b1aa3f">
<path id="Vector" d="M25.8867 14.1133L14.1134 14.1133L14.1134 25.8866L25.8867 25.8866L25.8867 14.1133Z" fill="white"/>
</g>
</mask>
<g mask="url(#mask0_71_450)">
<g id="Group">
<g id="Clip path group_2">
<mask id="mask1_71_450" style="mask-type:luminance" maskUnits="userSpaceOnUse" x="14" y="14" width="12" height="12">
<g id="9644b77425">
<path id="Vector_2" d="M20.0001 14.1133L14.1134 18.6104L16.3621 25.8866L23.638 25.8866L25.8867 18.6104L20.0001 14.1133Z" fill="white"/>
</g>
</mask>
<g mask="url(#mask1_71_450)">
<g id="Group_2">
<path id="Vector_3" d="M25.8867 14.1133L14.1134 14.1133L14.1134 25.8866L25.8867 25.8866L25.8867 14.1133Z" fill="#FF3131"/>
</g>
</g>
</g>
</g>
</g>
</g>
<path id="Vector_4" d="M-0.00390853 20.3167V20.0683C-0.00390853 20.0442 -0.00390853 20.0279 -0.00390853 20.0042C-0.00390853 19.9721 -0.00390853 19.9317 -0.00390853 19.8996C-0.00390853 19.7713 0.00400979 19.6513 0.00400979 19.5229C0.00400979 19.3946 0.00400976 19.2663 0.0119281 19.1379C0.0198464 19.0175 0.0281816 18.8892 0.0360998 18.7688C0.0440182 18.6325 0.0519364 18.5042 0.0602715 18.3679C0.0681899 18.2475 0.0840265 18.1271 0.0923615 18.015C0.108198 17.8783 0.116116 17.7421 0.13237 17.6058C0.148207 17.4854 0.16446 17.3733 0.180297 17.2529C0.19655 17.1167 0.212386 16.98 0.236558 16.8438C0.252812 16.7317 0.276567 16.6113 0.300738 16.4988C0.32491 16.3625 0.349082 16.2263 0.372837 16.0979C0.397008 15.9775 0.42118 15.8654 0.445352 15.745C0.477442 15.6167 0.501197 15.4804 0.533287 15.3521C0.557458 15.2396 0.589548 15.1275 0.621638 15.0071C0.653728 14.8788 0.685819 14.7425 0.725827 14.6142C0.757917 14.5017 0.798342 14.3896 0.830432 14.2692C0.87044 14.1408 0.90253 14.0125 0.942539 13.8842C0.982547 13.7717 1.02297 13.6517 1.06298 13.5392C1.10299 13.4188 1.143 13.2904 1.19134 13.1704C1.23135 13.05 1.27969 12.9296 1.32762 12.8175C1.37596 12.6971 1.41597 12.5846 1.4639 12.4646C1.51224 12.3442 1.5685 12.2238 1.61643 12.1033C1.66477 11.9913 1.7127 11.8788 1.76104 11.7667C1.81689 11.6463 1.87315 11.5342 1.92941 11.4217C1.98567 11.3096 2.0336 11.1971 2.08986 11.085C2.14612 10.9646 2.2103 10.8442 2.27448 10.7321C2.33033 10.6275 2.38659 10.5154 2.44285 10.4113C2.51495 10.2829 2.58705 10.1625 2.65956 10.0342C2.71541 9.93792 2.77167 9.84167 2.82793 9.74542C2.89211 9.63292 2.96421 9.52083 3.03631 9.41667C3.10049 9.31208 3.16467 9.2 3.23718 9.09583C3.26927 9.03958 3.30928 8.99125 3.34137 8.94333C3.44556 8.78292 3.55808 8.6225 3.67019 8.46208L3.90274 8.13333H3.91107C6.30949 4.88458 9.70311 2.39042 13.5218 1.08292V1.075L13.899 0.954583C15.8723 0.320833 17.9261 0 20.0123 0C20.277 0 20.5337 0.00791667 20.7904 0.01625C21.0792 0.0241666 21.368 0.0483333 21.6489 0.0720833C23.173 0.1925 24.6733 0.489167 26.1253 0.954583L26.4945 1.075V1.08292C30.2249 2.36625 33.5543 4.7725 35.9448 7.92458H35.9528L36.1857 8.2375C36.3378 8.44583 36.4904 8.6625 36.635 8.87917C36.6908 8.95917 36.7392 9.0475 36.7954 9.12792C36.8834 9.26417 36.9717 9.3925 37.0521 9.52875C37.108 9.61708 37.1643 9.71333 37.2126 9.80958C37.2926 9.93792 37.3647 10.0663 37.4451 10.2025C37.5014 10.2988 37.5493 10.4029 37.6056 10.4992C37.6777 10.6275 37.7419 10.7558 37.814 10.8763C37.8702 10.9804 37.9186 11.0929 37.9744 11.1971C38.0386 11.3175 38.0949 11.4458 38.159 11.5663C38.2074 11.6704 38.2553 11.7746 38.3037 11.8871C38.3595 12.0154 38.4158 12.1438 38.472 12.2721C38.52 12.3763 38.5604 12.4883 38.6004 12.5929C38.6483 12.7213 38.7046 12.8496 38.7529 12.9858C38.7929 13.0979 38.8329 13.2104 38.8729 13.3225C38.9213 13.4508 38.9692 13.5792 39.0096 13.7075C39.0496 13.8279 39.0817 13.9483 39.1217 14.0688C39.1618 14.1971 39.2022 14.3171 39.2343 14.4454C39.2664 14.5658 39.2984 14.6942 39.3305 14.8146C39.3626 14.9429 39.4026 15.0633 39.4268 15.1917C39.4589 15.3117 39.4827 15.44 39.5068 15.5604C39.5389 15.6888 39.5631 15.8171 39.5952 15.9454C39.6193 16.0738 39.6431 16.2021 39.6673 16.3225C39.6914 16.4508 39.7156 16.5713 39.7394 16.6996C39.7635 16.8279 39.7798 16.9563 39.7956 17.0763C39.8119 17.2046 39.8356 17.3329 39.8519 17.4613C39.8677 17.5896 39.8761 17.7263 39.8919 17.8546C39.9082 17.9829 39.924 18.1113 39.9319 18.2313C39.9402 18.3596 39.9482 18.4963 39.9561 18.6246C39.964 18.7529 39.9723 18.8813 39.9803 19.0096C39.9882 19.1379 39.9882 19.2742 39.9882 19.4025C39.9882 19.5308 39.9961 19.6592 39.9961 19.7875C39.9961 19.8596 39.9961 19.9238 39.9961 19.9958C39.9961 20.0121 39.9961 20.0363 39.9961 20.0521V20.1967H39.9882C39.9482 24.2713 38.6967 28.1613 36.3541 31.4817V31.49L36.1215 31.8108C33.6585 35.1713 30.2812 37.6417 26.3499 38.9654L26.2295 39.0054C24.2161 39.6629 22.114 40 19.9719 40C17.8702 40 15.8002 39.6792 13.8186 39.0375L13.6985 38.9975C12.7196 38.6767 11.7648 38.2754 10.8584 37.8183C10.4012 37.5858 9.95983 37.3371 9.52683 37.0725C8.59622 36.5029 7.72145 35.8613 6.90336 35.1475C6.5983 34.8825 6.30157 34.61 6.01276 34.3292C5.98859 34.305 5.9565 34.2813 5.93275 34.2492C5.91649 34.2329 5.90066 34.2171 5.89232 34.2008C5.67603 33.9925 5.47515 33.7679 5.26677 33.5513C4.79334 33.03 4.33616 32.4925 3.91107 31.915L3.67019 31.5942V31.5863C1.34387 28.2975 0.0681899 24.4075 -0.00390853 20.3167ZM5.98067 32.0271C6.02902 32.0833 6.08486 32.1475 6.1332 32.2038C6.23739 32.3158 6.33366 32.4283 6.43785 32.5404C6.47828 32.5888 6.5262 32.6367 6.56621 32.685C6.71082 32.8454 6.86336 32.9979 7.01547 33.15C7.03172 33.1663 7.04756 33.1821 7.06381 33.1983C7.20009 33.3346 7.34471 33.4708 7.48098 33.5992C7.52891 33.6475 7.58517 33.6954 7.63352 33.7358C7.74562 33.8321 7.84981 33.9283 7.96233 34.0246C8.0186 34.0725 8.08278 34.1208 8.13862 34.1767C8.25115 34.2729 8.36325 34.3613 8.47578 34.4496C8.53204 34.4975 8.58788 34.5379 8.64414 34.5858C8.78042 34.69 8.91712 34.7946 9.06131 34.8988C9.0934 34.9229 9.12549 34.9467 9.15758 34.9708C9.33429 35.0992 9.50266 35.2196 9.67894 35.34C9.72729 35.3721 9.77521 35.4042 9.82356 35.4363C9.95192 35.5242 10.0882 35.6046 10.2166 35.6929C10.2807 35.7329 10.3449 35.7729 10.4091 35.8129C10.5295 35.8854 10.65 35.9575 10.7783 36.0296C10.8425 36.0696 10.9146 36.11 10.9788 36.1421C11.1072 36.2142 11.2434 36.2863 11.3797 36.3583C11.436 36.3904 11.4922 36.4225 11.5485 36.4467C11.741 36.5429 11.9336 36.6392 12.1261 36.7275C12.1499 36.7433 12.182 36.7517 12.2061 36.7675C12.3745 36.8479 12.5433 36.92 12.7117 36.9921C12.7758 37.0242 12.8479 37.0483 12.9121 37.0725C12.9925 37.1046 13.0805 37.1367 13.1609 37.1767L11.436 31.8667L5.85231 31.8667C5.89232 31.9229 5.94066 31.9713 5.98067 32.0271ZM11.6043 30.335L15.4956 25.5463L13.4335 19.2021L7.18426 16.7638L1.55225 20.8542C1.70478 24.2629 2.77167 27.5117 4.68123 30.335L11.6043 30.335ZM27.3768 36.96C27.5372 36.8879 27.6977 36.8158 27.8581 36.7433C27.8982 36.7275 27.9302 36.7113 27.9707 36.6954C28.1632 36.5992 28.3558 36.5029 28.5483 36.4067C28.5962 36.3825 28.6446 36.3583 28.6925 36.3263C28.8371 36.2542 28.9813 36.1742 29.1176 36.0938C29.1818 36.0617 29.2459 36.0217 29.3101 35.9817C29.4385 35.9092 29.5668 35.8292 29.6873 35.7571C29.7515 35.7167 29.8077 35.6846 29.8719 35.6446C30.0082 35.5563 30.1445 35.4683 30.2812 35.38C30.3212 35.3479 30.3691 35.3238 30.4095 35.2917C30.5858 35.1713 30.7625 35.0429 30.9388 34.9229C30.9788 34.8988 31.0109 34.8667 31.043 34.8425C31.1797 34.7383 31.316 34.6342 31.4522 34.5296C31.5085 34.4896 31.5648 34.4417 31.6206 34.3933C31.7331 34.2971 31.8536 34.2088 31.9657 34.1125C32.0219 34.0646 32.0782 34.0163 32.134 33.9683C32.2545 33.8642 32.3749 33.7596 32.487 33.6475C32.5275 33.6075 32.5754 33.5671 32.6154 33.5271C32.7758 33.3829 32.9284 33.2304 33.0809 33.0779C33.1051 33.0538 33.1209 33.03 33.1451 33.0138C33.2734 32.8854 33.4018 32.7492 33.5302 32.6129C33.5781 32.5646 33.6264 32.5083 33.6744 32.4604C33.779 32.3479 33.8752 32.2358 33.9715 32.1233C34.0194 32.0675 34.0678 32.0113 34.1157 31.955C34.1478 31.915 34.1799 31.875 34.212 31.8346L28.6846 31.8346L26.9517 37.1367C27.0238 37.1046 27.1042 37.0804 27.1763 37.0483C27.2405 37.0163 27.3047 36.9921 27.3768 36.96ZM28.4116 30.2946L35.3593 30.2946C37.3168 27.3913 38.3837 24.0304 38.4799 20.5092L33.2093 16.6833L26.5825 19.21L24.5287 25.5225L28.4116 30.2946ZM38.4237 18.4642C38.4158 18.4 38.4078 18.3275 38.4078 18.2633C38.3916 18.1113 38.3758 17.9508 38.3595 17.7983C38.3516 17.7263 38.3437 17.6621 38.3357 17.5896C38.3116 17.4133 38.2874 17.2367 38.2553 17.0604C38.2474 17.0204 38.2474 16.9883 38.2395 16.9479C38.2074 16.7317 38.167 16.5229 38.119 16.3146C38.1111 16.2583 38.0949 16.2021 38.0869 16.1458C38.0549 15.9854 38.0148 15.8333 37.9828 15.6729C37.9665 15.6004 37.9507 15.5363 37.9344 15.4721C37.8944 15.32 37.8544 15.1675 37.814 15.015C37.7981 14.9588 37.7819 14.9029 37.766 14.8388C37.7098 14.63 37.6456 14.4296 37.5735 14.2208C37.5656 14.1971 37.5573 14.1729 37.5493 14.1488C37.4931 13.9725 37.4289 13.7879 37.3647 13.6113C37.341 13.5471 37.3168 13.4829 37.2926 13.4188C37.2364 13.2746 37.1805 13.13 37.1242 12.9938C37.1001 12.9296 37.0759 12.8654 37.0438 12.8013C36.9717 12.6329 36.8996 12.4725 36.8275 12.3042C36.8113 12.2721 36.7954 12.24 36.7871 12.2079C36.6992 12.0154 36.6029 11.8229 36.5066 11.6304C36.4824 11.5821 36.4504 11.5258 36.4262 11.4779C36.3541 11.3333 36.2737 11.1971 36.1936 11.0529C36.1615 10.9888 36.1215 10.9325 36.0894 10.8683C36.009 10.7321 35.929 10.5954 35.8486 10.4592C35.8165 10.4113 35.7844 10.355 35.7523 10.3067C35.7365 10.2829 35.7281 10.2667 35.7123 10.2425L34.0436 15.3758L38.4479 18.5763C38.432 18.5363 38.4237 18.4963 38.4237 18.4642ZM23.1251 24.8808L25.0421 18.9692L20.0123 15.32L14.9821 18.9692L16.8992 24.8808L23.1251 24.8808ZM24.3124 2.04542C24.272 2.0375 24.2241 2.02917 24.184 2.01333C24.0236 1.97333 23.8548 1.94125 23.6944 1.90917C23.6143 1.89292 23.5422 1.87708 23.4618 1.86083C23.3335 1.83667 23.1972 1.81292 23.0688 1.78875C22.9805 1.7725 22.8921 1.75667 22.8042 1.74875C22.6758 1.7325 22.5391 1.70833 22.4108 1.6925C22.2345 1.66833 22.0661 1.6525 21.8894 1.63625C21.8011 1.62833 21.7131 1.62042 21.6248 1.61208C21.4964 1.60417 21.368 1.59625 21.2476 1.58833C21.1676 1.58 21.0951 1.58 21.0151 1.57208C20.8867 1.56417 20.7504 1.55625 20.6221 1.55625C20.5658 1.55625 20.5016 1.55625 20.4454 1.55625C20.1807 1.54792 19.9161 1.54792 19.651 1.55625C19.5952 1.55625 19.531 1.55625 19.4747 1.55625C19.3385 1.56417 19.2101 1.56417 19.0734 1.57208C18.9934 1.58 18.9213 1.58 18.8409 1.58833C18.7125 1.59625 18.5841 1.60417 18.4558 1.61208C18.3674 1.62042 18.2791 1.62833 18.1911 1.63625C18.0144 1.6525 17.8381 1.67625 17.6614 1.6925C17.5331 1.70833 17.3968 1.72458 17.2684 1.74875C17.1801 1.76458 17.0917 1.78083 17.0038 1.78875C16.8671 1.81292 16.7387 1.83667 16.6025 1.86083C16.5225 1.87708 16.4499 1.89292 16.3699 1.90917C16.2016 1.94125 16.0328 1.98125 15.8644 2.02125C15.8244 2.02917 15.7844 2.0375 15.744 2.04542C15.736 2.04542 15.7202 2.05333 15.7119 2.05333L20.0361 5.1975L24.3603 2.05333C24.3282 2.04542 24.3203 2.04542 24.3124 2.04542ZM4.39242 10.1463C4.33616 10.2346 4.2799 10.3308 4.22364 10.4192C4.19155 10.4754 4.15154 10.5313 4.11945 10.5954C4.00734 10.78 3.90274 10.9725 3.79855 11.1571C3.79063 11.1729 3.77438 11.1971 3.76646 11.2133C3.67019 11.3817 3.58184 11.5579 3.4939 11.7346C3.46181 11.7988 3.42972 11.8629 3.39763 11.9271C3.33345 12.0633 3.26927 12.1917 3.20509 12.3279C3.173 12.4004 3.14091 12.4725 3.10882 12.5446C3.05256 12.6729 2.9963 12.8092 2.94004 12.9375C2.90795 13.01 2.88419 13.0821 2.8521 13.1542C2.79584 13.2988 2.73958 13.4429 2.68332 13.5954C2.65956 13.6517 2.64331 13.7075 2.61914 13.7638C2.54704 13.9642 2.47494 14.1729 2.41076 14.3813C2.40284 14.4054 2.39451 14.4375 2.38659 14.4617C2.33033 14.6379 2.27448 14.8225 2.22614 14.9992C2.2103 15.0633 2.18613 15.1354 2.16988 15.1996C2.12987 15.3438 2.09778 15.4883 2.05777 15.6325C2.04152 15.705 2.02568 15.785 2.00151 15.8571C1.96942 16.0017 1.93733 16.1379 1.91316 16.2825C1.89732 16.3546 1.88107 16.4267 1.86523 16.4988C1.83314 16.6592 1.80897 16.8196 1.77688 16.98C1.76896 17.0363 1.76104 17.0925 1.75271 17.1488C1.72062 17.365 1.68853 17.5817 1.66477 17.7983C1.65644 17.8383 1.65644 17.8783 1.64852 17.9188C1.63268 18.095 1.60851 18.2717 1.59226 18.4479C1.58434 18.52 1.58434 18.5925 1.57642 18.6725C1.5685 18.7608 1.5685 18.8571 1.56017 18.9454L6.15738 15.6088L4.39242 10.1463ZM5.50724 8.5825L7.68936 15.3038L14.0273 17.7742L19.258 13.9725V6.545L13.8348 2.59875C10.5695 3.76167 7.66561 5.85542 5.50724 8.5825ZM26.1974 2.60667L20.7904 6.53708V13.9883L26.0132 17.7821L32.4149 15.3438L34.5891 8.6625C32.4312 5.89542 29.4868 3.77792 26.1974 2.60667ZM25.1305 37.77L27.2326 31.2892L23.2772 26.4288L16.7629 26.4288L12.8642 31.2333L14.998 37.7942C16.6266 38.2513 18.3032 38.4842 20.0123 38.4842C21.7531 38.4842 23.4697 38.2433 25.1305 37.77Z" fill="black"/>
</g>
<defs>
<clipPath id="clip0_71_450">
<rect width="40" height="40" fill="white" transform="matrix(1 0 0 -1 0 40)"/>
</clipPath>
</defs>
</svg>
